<svg version="1.2" xmlns="http://www.w3.org/2000/svg" viewBox="0 0 28 28" width="28" height="28" fill="white">
  <path d="m0.5 0.2q0.1-0.1 0.1-0.1 0.1 0 0.2-0.1 0.1 0 0.2 0.1 0.1 0 0.2 0l0.1 0.1 12.8 12.8q0.1 0.2 0.1 0.4 0 0.2-0.1 0.4-0.1 0.1-0.3 0.2-0.3 0-0.4-0.1l-0.1-0.1-12.8-12.8q-0.1-0.1-0.1-0.2-0.1-0.1-0.1-0.2 0-0.1 0.1-0.2 0-0.1 0.1-0.2z"/>
  <path d="m27.5 0.2q-0.1-0.1-0.1-0.1-0.1 0-0.2-0.1-0.1 0-0.2 0.1-0.1 0-0.2 0l-0.1 0.1-12.8 12.8q-0.1 0.2-0.1 0.4 0 0.2 0.1 0.4 0.1 0.1 0.3 0.2 0.3 0 0.4-0.1l0.1-0.1 12.8-12.8q0.1-0.1 0.1-0.2 0.1-0.1 0.1-0.2 0-0.1-0.1-0.2 0-0.1-0.1-0.2z"/>
  <path d="m14 14.2q-0.1-0.1-0.1-0.1-0.1 0-0.2-0.1-0.1 0-0.2 0.1-0.1 0-0.2 0l-0.1 0.1-12.8 12.8q-0.1 0.2-0.1 0.4 0 0.2 0.1 0.4 0.1 0.1 0.3 0.2 0.3 0 0.4-0.1l0.1-0.1 12.8-12.8q0.1-0.1 0.1-0.2 0.1-0.1 0.1-0.2 0-0.1-0.1-0.2 0-0.1-0.1-0.2z"/>
  <path d="m14 14.2q0.1-0.1 0.1-0.1 0.1 0 0.2-0.1 0.1 0 0.2 0.1 0.1 0 0.2 0l0.1 0.1 12.8 12.8q0.1 0.2 0.1 0.4 0 0.2-0.1 0.4-0.1 0.1-0.3 0.2-0.3 0-0.4-0.1l-0.1-0.1-12.8-12.8q-0.1-0.1-0.1-0.2-0.1-0.1-0.1-0.2 0-0.1 0.1-0.2 0-0.1 0.1-0.2z"/>
</svg>
