<svg version="1.2" xmlns="http://www.w3.org/2000/svg" viewBox="0 0 48 48" width="20" height="20">
  <path fill-rule="evenodd" class="s0" d="m25 30h-4v4c0 0.6-0.4 1-1 1-0.6 0-1-0.4-1-1v-4h-4c-0.6 0-1-0.4-1-1 0-0.6 0.4-1 1-1h4v-4c0-0.6 0.4-1 1-1 0.6 0 1 0.4 1 1v4h4c0.6 0 1 0.4 1 1 0 0.6-0.4 1-1 1z"/>
  <path id="Layer copy 2" fill-rule="evenodd" class="s0" d="m36.9 48h-34.8c-1.2 0-2.1-0.9-2.1-2.1v-34.8c0-1.2 0.9-2.1 2.1-2.1h34.8c1.2 0 2.1 0.9 2.1 2.1v34.8c0 1.2-0.9 2.1-2.1 2.1zm0.5-36.9c0-0.3-0.2-0.5-0.5-0.5h-34.8c-0.3 0-0.5 0.2-0.5 0.5v34.8c0 0.3 0.2 0.5 0.5 0.5h34.8c0.3 0 0.5-0.2 0.5-0.5z"/>
  <path fill-rule="evenodd" class="s0" d="m11 2v4c0 0.6-0.4 1-1 1-0.6 0-1-0.4-1-1v-4c0-0.9 0.8-2 2-2h35c1 0 2 1 2 2v1.4c0 0 0 1.4 0 3.6q0 0.1 0 1.7c0 0.2 0 1.1 0 1.4q0 0 0 0.1v26.8c0 1.1-0.9 2-2 2h-4c-0.6 0-1-0.4-1-1 0-0.6 0.4-1 1-1h4v-35m0 19.9v-8.2"/>
</svg>
