<svg version="1.2" xmlns="http://www.w3.org/2000/svg" viewBox="0 0 48 48" width="20" height="20" fill="white">
  <path d="m39 19.3q-0.1 0-0.2 0c-1.1 6.9-6.8 12.2-13.8 12.7v11h5c0.6 0 1 0.4 1 1 0 0.6-0.4 1-1 1h-12c-0.6 0-1-0.4-1-1 0-0.6 0.4-1 1-1h5v-11c-7-0.5-12.7-5.8-13.8-12.7q-0.1 0-0.2 0c-5.1 0-9-5.5-9-10.3 0-0.6 0.4-1 1-1h8v-2c0-0.6 0.4-1 1-1h28c0.6 0 1 0.4 1 1v2h8c0.6 0 1 0.4 1 1 0 4.8-3.9 10.3-9 10.3zm-30-2.4q0 0 0 0v-6.9h-6.9c0.4 3.5 3.4 7.3 6.9 7.3q0 0 0 0 0-0.1 0-0.3 0 0 0-0.1zm28 0v-9.9h-26v9.9q0 0 0 0 0 0.1 0 0.1c0 7.2 5.8 13 13 13 7.2 0 13-5.8 13-13q0 0 0-0.1 0 0 0 0zm2-6.9v6.9q0 0 0 0 0 0.1 0 0.1 0 0.2 0 0.3 0 0 0 0c3.5 0 6.5-3.8 6.9-7.3z"/>
</svg>
