<svg xmlns="http://www.w3.org/2000/svg" xmlns:xlink="http://www.w3.org/1999/xlink" width="20" height="20" viewBox="0 0 48 48">
  <path fill="#cc6600" d="M 0 46 L 48 46 C 48 47.1 47.1 48 46 48 L 2 48 C 0.9 48 0 47.1 0 46 Z" transform="matrix(1, 0, 0, 1, 0, -1.7763568394002505e-15)"/>
  <path fill="white" d="m32.3 24.3c0.3-0.4 1-0.4 1.4 0 0.4 0.3 0.4 1 0 1.4l-9 10q0 0 0 0-0.1 0.1-0.2 0.2-0.1 0-0.1 0-0.2 0.1-0.4 0.1-0.2 0-0.4-0.1 0 0-0.1 0-0.1-0.1-0.2-0.2 0 0 0 0l-9-10q-0.3-0.3-0.3-0.7c0-0.3 0.1-0.5 0.3-0.7 0.4-0.4 1.1-0.4 1.4 0l7.3 8.1v-31.4c0-0.6 0.4-1 1-1 0.6 0 1 0.4 1 1v31.4z" transform="matrix(1, 0, 0, 1, 0, -1.7763568394002505e-15)"/>
</svg>
