<svg version="1.2" xmlns="http://www.w3.org/2000/svg" viewBox="0 0 48 48" width="10" height="10" fill="white">
  <path d="m47.8 11v-10q0-0.2-0.1-0.4-0.1-0.4-0.5-0.5-0.2-0.1-0.4-0.1h-10c-0.5 0-0.9 0.4-0.9 1 0 0.5 0.5 0.9 1 0.9h7.6l-14.3 14.4c-0.4 0.4-0.4 1 0 1.4q0.3 0.3 0.7 0.3 0.4 0 0.7-0.3l14.3-14.4v7.6c0 0.6 0.4 1.1 0.9 1.1 0.6 0 1-0.5 1-1zm-30.2 20.6c0.4-0.3 0.4-1 0-1.4-0.4-0.4-1-0.4-1.4 0l-14.3 14.4v-7.7c0-0.5-0.4-1-0.9-1-0.6 0-1 0.5-1 1v10q0 0 0 0 0 0.2 0.1 0.4c0.1 0.2 0.3 0.4 0.5 0.5q0.2 0.1 0.4 0.1h10c0.5 0 0.9-0.4 0.9-1 0-0.5-0.4-1-0.9-1h-7.6z"/>
</svg>
