<svg xmlns="http://www.w3.org/2000/svg" xmlns:xlink="http://www.w3.org/1999/xlink" width="20" height="20" viewBox="0 0 48 48">
  <path fill="white" d="m19 47.9c-10.5 0-19-8.6-19-19.2 0-6.1 3-11 3.1-11.2 0.3-0.4 0.6-0.6 1-0.5 0.4 0 0.7 0.3 0.8 0.6 0.1 0.1 1.7 4.4 6 6.7-0.3-5 0.2-19.6 12.8-24.2 0.3-0.2 0.7-0.1 1 0.2 0.3 0.2 0.4 0.6 0.3 1-0.1 0.1-3.2 11.8 2.3 16.9 0.4-2.4 1.7-6.6 5.1-9 0.3-0.2 0.7-0.3 1-0.1 0.3 0.1 0.5 0.4 0.6 0.7 0.6 3.1 1.3 5.2 2 7.1 1.1 3.1 2 5.7 2 11.8 0 10.6-8.5 19.2-19 19.2zm-15-27.7c-0.9 1.8-2 5-2 8.5 0 9.5 7.6 17.2 17 17.2 9.4 0 17-7.7 17-17.2 0-5.7-0.8-8.1-1.9-11.2-0.6-1.5-1.2-3.3-1.7-5.6-3 3.1-3.4 8.1-3.4 8.2 0 0.3-0.2 0.6-0.5 0.8-0.4 0.1-0.7 0.1-1-0.1-6.7-4-5.7-13.9-4.9-18.1-4.7 2.4-7.8 6.7-9.1 13-1.1 5.3-0.5 10.1-0.5 10.1 0 0.4-0.1 0.7-0.4 1-0.3 0.2-0.6 0.2-1 0.1-4.1-1.6-6.4-4.7-7.6-6.7z"/>
  <path fill="#cc6600" d="m21 40.6c-3.9 0-7-3.2-7-7.1 0-2.2 1.1-4 1.2-4.1 0-0.1 0.2-0.2 0.3-0.2 0.1 0 0.3 0.1 0.3 0.3 0 0 0.6 1.6 2.2 2.4-0.1-1.8 0.1-7.2 4.7-8.9q0.2 0 0.4 0.1 0.1 0.2 0.1 0.4c0 0-1.2 4.3 0.8 6.2 0.2-0.9 0.7-2.4 1.9-3.3q0.2-0.1 0.4-0.1 0.1 0.1 0.2 0.3c0.2 1.1 0.5 1.9 0.7 2.6 0.4 1.1 0.8 2.1 0.8 4.3 0 3.9-3.2 7.1-7 7.1z"/>
</svg>
