<svg xmlns="http://www.w3.org/2000/svg" xmlns:xlink="http://www.w3.org/1999/xlink" width="24" height="24" viewBox="0 0 48 48">
  <path  fill="#900" d="m21.9 10.7q0 0 0 0l-8.6 9.6c-0.4 0.4-0.9 0.6-1.4 0.6 0 0-1-0.2-1.4-0.6l-8.6-9.6q0 0 0 0c-2.4-2.4-2.4-6.4 0-8.8 1.2-1.1 2.7-1.8 4.4-1.8 1.6 0 3.1 0.7 4.3 1.8q0 0 0 0 0 0 0 0l1.3 1.4 1.3-1.4q0 0 0 0 0 0 0 0c1.2-1.1 2.7-1.8 4.3-1.8 1.7 0 3.2 0.7 4.4 1.8 2.4 2.4 2.4 6.4 0 8.8z"/>
  <path  fill="white" d="m22 10.7q0 0 0 0l-8.7 9.7c-0.4 0.4-0.9 0.6-1.4 0.6q0 0 0 0c-0.5 0-1-0.2-1.4-0.6l-8.7-9.7q0 0 0 0c-2.4-2.5-2.4-6.4 0-8.9 1.2-1.1 2.7-1.8 4.4-1.8 1.6 0 3.2 0.7 4.4 1.8q0 0 0 0 0 0 0 0l1.3 1.4 1.3-1.4q0 0 0 0 0 0 0 0c1.2-1.1 2.7-1.8 4.4-1.8 1.7 0 3.2 0.7 4.4 1.8 2.4 2.5 2.4 6.4 0 8.9zm-0.7-8.2c-1-1-2.3-1.5-3.7-1.5-1.4 0-2.7 0.5-3.7 1.5l-1.6 1.8q0 0-0.1 0 0 0 0 0 0 0.1-0.1 0.1 0 0 0 0-0.1 0.1-0.2 0.1-0.1 0-0.2-0.1 0 0 0 0-0.1 0-0.1-0.1 0 0-0.1 0 0 0 0 0l-1.6-1.8c-1-1-2.3-1.5-3.7-1.5-1.4 0-2.7 0.5-3.7 1.5-2 2.1-2 5.4 0 7.5q0 0 0 0 0 0 0 0l8.7 9.7q0.3 0.3 0.7 0.3 0.4 0 0.6-0.3l8.8-9.7q0 0 0 0 0 0 0 0c2-2.1 2-5.4 0-7.5z"/>
</svg>