<svg version="1.2" xmlns="http://www.w3.org/2000/svg" viewBox="0 0 48 48" width="20" height="20">
  <path fill="white" d="m44 19.9v27.1c0 0.6-0.4 1-1 1-0.6 0-1-0.4-1-1v-27.1c-2.3-0.5-4-2.5-4-4.9 0-2.4 1.7-4.4 4-4.9v-9.1c0-0.6 0.4-1 1-1 0.6 0 1 0.4 1 1v9.1c2.3 0.5 4 2.5 4 4.9 0 2.4-1.7 4.4-4 4.9zm-1-7.9c-1.7 0-3 1.3-3 3 0 1.7 1.3 3 3 3 1.7 0 3-1.3 3-3 0-1.7-1.3-3-3-3z"/>
  <path fill="white" d="m36-1v10c0 0.6-0.4 1-1 1h-34c-0.6 0-1-0.4-1-1v-10c0-0.6 0.4-1 1-1h34c0.6 0 1 0.4 1 1zm-34 9h32v-8h-32z"/>
  <path fill="white" d="m36 39v10c0 0.6-0.4 1-1 1h-34c-0.6 0-1-0.4-1-1v-10c0-0.6 0.4-1 1-1h34c0.6 0 1 0.4 1 1zm-34 9h32v-8h-32z"/>
  <path fill="#cc6600" d="m36 15v18c0 0.6-0.4 1-1 1h-34c-0.6 0-1-0.4-1-1v-18c0-0.6 0.4-1 1-1h34c0.6 0 1 0.4 1 1zm-34 17h32v-16h-32z"/>
</svg>
