<svg xmlns="http://www.w3.org/2000/svg" xmlns:xlink="http://www.w3.org/1999/xlink" width="24" height="24" viewBox="0 0 48 48" fill="white">
  <path d="M41.548,41.110 C41.200,41.675 40.561,42.000 39.796,42.000 L27.768,42.000 C27.280,45.384 24.399,48.000 20.895,48.000 C17.392,48.000 14.512,45.384 14.023,42.000 L1.996,42.000 C1.230,42.000 0.592,41.676 0.244,41.111 C-0.104,40.545 -0.107,39.826 0.235,39.139 L5.956,26.778 L5.956,14.998 C5.956,6.728 12.658,0.000 20.895,0.000 C29.134,0.000 35.837,6.728 35.837,14.998 L35.837,26.778 L41.571,39.165 C41.901,39.826 41.897,40.544 41.548,41.110 ZM20.895,46.000 C23.300,46.000 25.313,44.279 25.776,42.000 L16.015,42.000 C16.478,44.279 18.490,46.000 20.895,46.000 ZM33.937,27.421 C33.935,27.416 33.936,27.410 33.933,27.404 C33.907,27.346 33.903,27.280 33.888,27.217 C33.873,27.149 33.849,27.084 33.848,27.016 C33.848,27.010 33.845,27.006 33.845,27.000 L33.845,14.998 C33.845,7.831 28.035,2.000 20.895,2.000 C13.756,2.000 7.948,7.831 7.948,14.998 L7.948,27.000 C7.948,27.006 7.945,27.011 7.945,27.016 C7.944,27.084 7.920,27.149 7.905,27.216 C7.890,27.280 7.886,27.346 7.860,27.404 C7.858,27.410 7.858,27.416 7.856,27.421 L2.032,40.000 L39.761,40.000 L33.937,27.421 Z" class="cls-1"/>
</svg>
