<svg xmlns="http://www.w3.org/2000/svg" xmlns:xlink="http://www.w3.org/1999/xlink" width="20" height="20" viewBox="0 0 48 48">
  <path fill="#cc6600" d="m37.8 32c-1.7-0.1-2.8-1.5-2.8-3.2v-7.3c0-1.8 1.2-3.2 3-3.2h1.5c0.7 0 1.3 0.2 1.8 0.5v-0.5c0-9.3-7.5-16.8-16.8-16.8-9.2 0-16.7 7.5-16.7 16.8v0.5c0.5-0.3 1.1-0.5 1.8-0.5h1.4c1.8 0 3 1.4 3 3.2v7.3c0 1.8-1.2 3.1-3 3.1l-1.4 0.1c-1.8 0-3.3-1.5-3.3-3.2v-10.5c0-10.1 8.2-18.3 18.2-18.3 10.1 0 18.3 8.2 18.3 18.3v12.8c0 0.3-0.2 0.6-0.5 0.7m-34.5-3.1c0 1 0.8 1.7 1.7 1.7h1.5c1 0 1.5-0.7 1.5-1.6v-7.4c0-0.9-0.5-1.6-1.5-1.6h-1.5c-0.9 0-1.7 0.7-1.7 1.6zm31.7-8.9h-1.5c-1 0-1.5 0.7-1.5 1.6v7.4c0 0.9 0.5 1.6 1.5 1.6h1.5c1 0 1.8-0.7 1.8-1.7v-7.3c0-0.9-0.8-1.6-1.8-1.6zm-1.7 12.2q0.1 0 0.2 0h-0.1z"/>
  <path fill="white" d="m43.7 48h-38.4c-1.3 0-2.3-1-2.3-2.3v-2.8c0-0.3 0.2-0.6 0.5-0.8l14.1-7.7c-4.7-4.7-4.7-11.8-4.7-12.1v-8.2q0-0.1 0-0.2c0.9-5.3 6.6-8.9 11.5-8.9q0.1 0 0.1 0c4.9 0 10.7 3.6 11.6 8.9q0 0.1 0 0.2v8.2c0 0.3 0 7.4-4.7 12.1l14.1 7.7c0.3 0.2 0.5 0.5 0.5 0.8v2.8c0 1.3-1 2.3-2.3 2.3zm0.5-4.5l-14.7-8.1q0 0 0 0l-0.1-0.1q0 0-0.1-0.1-0.1 0-0.1-0.1 0 0 0 0-0.1-0.1-0.2-0.2 0-0.1 0-0.1 0-0.1 0-0.2 0-0.1 0-0.1 0-0.1 0-0.1 0-0.2 0.1-0.3 0 0 0 0 0-0.1 0.1-0.1 0.1-0.1 0.1-0.1c5-4.2 5.1-11.6 5.1-11.6l-0.1-8.1c-0.7-4.4-5.7-7.4-9.7-7.4q-0.1 0-0.1 0c-4.1 0-9.1 3-9.8 7.4l-0.1 8.1c0 0 0.1 7.5 5.1 11.6q0.1 0 0.1 0.1 0.1 0.1 0.1 0.1 0 0 0 0 0.1 0.2 0.1 0.3 0 0 0 0.1 0 0 0 0.1 0 0.1 0 0.2 0 0 0 0.1-0.1 0.1-0.2 0.2 0 0 0 0 0 0.1 0 0.1-0.1 0.1-0.2 0.1l-14.8 8.2v2.2c0 0.3 0.2 0.5 0.5 0.5h38.4c0.3 0 0.5-0.2 0.5-0.5z"/>
  <path fill="#cc6600" d="m42.3 31.8l-11.6 4.7q-0.2 0-0.3 0h-7.4c-0.4 0-0.7-0.3-0.7-0.7v-1.5c0-0.5 0.3-0.8 0.7-0.8h3.1c0.4 0 0.7 0.3 0.7 0.8v0.7h3.4l7.6-3m0 0q0.1 0 0.2 0h-0.1z"/>
</svg>