<svg version="1.2" xmlns="http://www.w3.org/2000/svg" viewBox="0 0 48 48" width="20" height="20">
  <path fill="white" d="m31.9 42.4l-3.8-7c-0.2-0.4-0.2-1.2 0.2-1.4 0.3-0.2 0.9-0.1 1.1 0.3l3.2 6.1 8.7-16-8.7-16-0.5 1c-0.2 0.4-0.6 0.5-1 0.3-0.4-0.1-0.5-0.6-0.3-1l1.1-2.3c0.1-0.2 0.3-0.3 0.5-0.4 0.4-0.1 0.7 0.1 0.9 0.4l9.6 17.6q0.1 0.2 0.1 0.4 0 0.2-0.1 0.4l-9.6 17.6c-0.1 0.2-0.4 0.4-0.7 0.4-0.3 0-0.5-0.2-0.7-0.4z"/>
  <path fill="#cc6600" d="m19.9 0.7l11.9 22.9q0.2 0.2 0.2 0.5 0 0.2-0.2 0.4l-11.9 23c-0.3 0.4-0.7 0.6-1.2 0.5-0.3-0.1-0.5-0.3-0.6-0.6l-12-22.9c-0.2-0.3-0.2-0.6 0-0.9l12-22.9c0.2-0.4 0.5-0.6 0.9-0.6 0.3 0 0.7 0.2 0.9 0.6zm-11.8 23.4l10.9 20.7 10.8-20.7-10.8-20.8z"/>
  <path fill="white" d="m31.3 18l0.9-1.8-6.7-12.3-0.4 0.7c-0.1 0.3-0.5 0.4-0.8 0.3-0.3-0.2-0.4-0.5-0.2-0.8l0.9-1.8q0.1-0.2 0.4-0.3c0.2 0 0.5 0.1 0.6 0.3l7.4 13.6q0.1 0.1 0.1 0.3 0 0.1-0.1 0.3l-1.1 2.3m-7.3 11.3"/>
</svg>
