<svg version="1.2" xmlns="http://www.w3.org/2000/svg" viewBox="0 0 16 16" width="20" height="20">
  <path d="m12.1 12.3l-2.4 0.7 2.4 0.6 0.7 2.5 0.7-2.5 2.4-0.6-2.4-0.7-0.7-2.5zm0.7-12.1l-0.7 2.4-2.4 0.7 2.4 0.7 0.7 2.4 0.7-2.4 2.4-0.7-2.4-0.7z" fill="white"></path>
  <path d="m6.2 1.9l-1.3 4.9-4.9 1.3 4.9 1.4 1.3 4.9 1.4-4.9 4.9-1.4-4.9-1.3zm0 3.2l0.5 1.9 0.2 0.4 0.4 0.2 1.9 0.5-1.9 0.5-0.4 0.1-0.2 0.5-0.5 1.9-0.5-1.9-0.2-0.5-0.4-0.1-1.9-0.5 1.9-0.5 0.4-0.2 0.2-0.5z" fill="#cc6600"></path>
</svg>
