<svg version="1.2" xmlns="http://www.w3.org/2000/svg" viewBox="0 0 20 20" width="20" height="20" fill="white">
  <path d="m18.3 8.9l-7.2 8.1c-0.3 0.3-0.8 0.5-1.2 0.5-0.4 0-0.8-0.2-1.2-0.5l-7.2-8.1c-2-2.1-2-5.3 0-7.4 1-0.9 2.2-1.5 3.7-1.5 1.3 0 2.6 0.6 3.6 1.5l1.1 1.2 1.1-1.2c1-0.9 2.3-1.5 3.7-1.5 1.4 0 2.6 0.6 3.6 1.5 2 2.1 2 5.3 0 7.4zm-0.5-6.8c-0.9-0.9-2-1.3-3.1-1.3-1.2 0-2.3 0.5-3.1 1.3l-1.3 1.5q-0.1 0-0.1 0 0 0.1-0.1 0.1-0.1 0-0.2 0-0.1 0-0.2 0 0 0 0-0.1 0 0-0.1 0l-1.3-1.5c-0.9-0.9-2-1.3-3.1-1.3-1.2 0-2.3 0.5-3.1 1.3-1.7 1.7-1.7 4.5 0 6.2l7.2 8.1q0.3 0.3 0.6 0.3 0.4 0 0.5-0.3l7.4-8.1c1.6-1.7 1.6-4.5 0-6.2z"/>
</svg>
