<svg version="1.2" xmlns="http://www.w3.org/2000/svg" viewBox="0 0 20 20" width="20" height="20">
  <path fill="#990000" d="m18.4 9.8l-7.2 8.1c-0.4 0.3-0.8 0.5-1.2 0.5 0 0-0.8-0.1-1.2-0.5l-7.2-8.1c-2-2-2-5.4 0-7.4 1-0.9 2.2-1.5 3.7-1.5 1.4 0 2.6 0.6 3.6 1.5l1.1 1.2 1.1-1.2c1-0.9 2.2-1.5 3.6-1.5 1.5 0 2.7 0.6 3.7 1.5 2 2 2 5.4 0 7.4z"/>
  <path fill="white" d="m18.5 9.8l-7.3 8.2c-0.4 0.3-0.8 0.5-1.2 0.5-0.4 0-0.8-0.2-1.2-0.5l-7.3-8.2c-2-2-2-5.4 0-7.5 1-0.9 2.2-1.5 3.7-1.5 1.4 0 2.7 0.6 3.7 1.5l1.1 1.2 1.1-1.2c1-0.9 2.2-1.5 3.6-1.5 1.5 0 2.8 0.6 3.8 1.5 2 2.1 2 5.4 0 7.5zm-0.6-6.9c-0.8-0.8-1.9-1.2-3.2-1.2-1.1 0-2.2 0.4-3 1.2l-1.4 1.5q0 0 0 0 0 0.1-0.1 0.1-0.1 0.1-0.2 0.1-0.1 0-0.2-0.1 0 0 0-0.1 0 0-0.1 0l-1.4-1.5c-0.8-0.8-1.9-1.2-3-1.2-1.3 0-2.4 0.4-3.2 1.2-1.7 1.8-1.7 4.6 0 6.3l7.3 8.2q0.3 0.3 0.6 0.3 0.3 0 0.5-0.3l7.4-8.2c1.7-1.7 1.7-4.5 0-6.3z"/>
</svg>
